<svg version="1" xmlns="http://www.w3.org/2000/svg" width="528" height="528" viewBox="0 0 396.000000 396.000000"><path d="M235.7 10.2c2.8 20.1-3.3 42.4-17.4 63.7-3.8 5.8-11.1 14-22.3 25.2-22.7 22.8-35.3 37-49.1 55-8.5 11.2-10.2 14.8-8.8 18.7.6 1.8 1.2 3.2 1.2 3.2.1.1 2.9.3 6.2.6 3.3.4 6.1.7 6.3.8.1.2-1.3 3.6-3.2 7.7-1.9 4.1-3.9 9.1-4.4 11.2-1 3.7-1 3.8 3.1 6.8 2.3 1.7 4.8 3.4 5.5 3.8 1 .6.6 2.2-1.9 7-2.8 5.4-3.5 6.2-5.7 5.9-2.8-.3-3.3.8-4.7 11-.5 4-.4 4.2 1.4 3.3 2.9-1.6 9.2-2.1 11.5-.9 3.2 1.6 7.6 6 9.2 9 2 3.8 1.7 7.4-.8 10.8-4 5.4-10.4 6-15.3 1.3-1.1-1-3.6-3.1-5.6-4.6-3.1-2.4-3.8-2.5-4.8-1.3-2 2.3-.5 4.9 6.1 11 5.8 5.4 6 5.8 5.5 9.7-.5 4-.5 4 2.5 3.5 3.7-.6 3.8-.7 4.2-4.2.2-1.6.4-3.3.5-3.7.2-1.5 5.7.1 11.6 3.4 7.8 4.4 14.8 4.6 21.9.6 5.3-3 6-2.8 9.6 2.3l2 2.8-8.8.1c-15.5.4-37.9 1.8-39.2 2.6-.3.1-2.7.6-5.3.9-11.4 1.6-26.3 8-34.9 15.1-3.4 2.9-8.3 9.2-11.8 15.5-3.6 6.4-3.5 4.8.7-9.5 4.7-15.8 9.8-26.2 18.2-37.5 6.4-8.5 11.1-16.1 12.9-20.5 1.4-3.6 4.2-15.5 4.7-20.5.7-5.7.6-24.2-.1-28.5-2.3-14.7-8.6-31.2-14.7-38.8l-2.3-2.9.2 11.6c.4 30.8-8.9 52.4-44.5 103.1-8.1 11.5-21.5 32.4-25.6 39.8-5.9 10.6-10.3 24.8-11.1 35.8-1.5 18.4 10.8 38.1 23.9 38.1 4 0 4.2.1 4.3 2.9.5 12.1 26 12.7 51.1 1.3 16.6-7.6 31.2-18.7 55.8-42.6 29.1-28.2 34.8-33.3 48.2-43.4 6.7-5.1 16.6-11.9 22-15.1 10.7-6.5 36.3-19.3 38.5-19.3.8 0 1.8-.4 2.3-.9.9-.8 23.9-8.8 27.5-9.6.8-.2 5.3-1.2 10-2.4 14.2-3.4 18.9-4.2 32.8-5.5 4.5-.5 8-1.1 7.7-1.4-.9-1-19.5-.4-28.5.8-12.1 1.7-12.6 1.7-14.7 2.4-1 .3-3.5.8-5.5 1.1-2.1.4-6.8 1.5-10.5 2.6-3.8 1.1-7.7 2.2-8.8 2.4-1.1.3-5.6 1.6-10 3-35.4 11.4-46.4 14.6-58.2 17.1-1.3.2-5.9.7-10.3 1l-8.1.6 5.8-5.3c3.1-3 6.2-5.9 6.9-6.4.6-.6 6.4-6 13-12.1 13.6-12.7 15.3-14.3 24.8-22.8 10.7-9.6 10.8-9.7 19.1-17.1 13.5-12.2 21.4-17.4 30.6-20.4 6.1-2 8-2.2 20.3-2.2l11.8-.1-4.3-2.5c-4-2.3-13.3-5.5-14.1-4.8-.2.2-3.7.6-7.9.9-11.1.8-37.9 4.4-41.6 5.5-3.7 1.1-4.3 0-2-3.4.8-1.1 3.5-6.1 6.2-11 2.6-5 5.1-9.5 5.5-10 .7-1 3.5-6.1 14.3-26.5 7.4-13.9 11.2-19.4 18-25.6 7.9-7.1 16.6-11.4 24.6-12.1 5-.5 5.9-.8 5-1.9-1.8-2.2-9.9-4.1-15.9-3.8-8.1.3-11.9 1.1-28.4 5.5-8.1 2.2-15.1 3.8-15.4 3.4-.5-.5 1.4-5.5 12.7-32.7 3.4-8.3 8-22.7 9.6-30.3 1.6-7.1 2.2-10.9 2.9-18.5.3-3 .8-6.5 1-7.8.3-1.2.3-2.2 0-2.2-1.2 0-23.5 16.7-30.8 23-4.7 4.1-15.5 15.1-21 21.4l-5.1 5.8-.7-3.8c-.4-2.2-.9-7.5-1.3-11.9-1-14.8-1.6-18.7-3.6-24.2-2.4-6.1-5.4-10-9.8-12.6l-3.2-1.9.8 5.4zm25.3 92.1c0 .2-.9 1.2-1.9 2.1-1.4 1.3-2.1 1.4-2.7.5-.4-.7-.3-1 .3-.6s1.6 0 2.3-.8c1.2-1.4 2-1.9 2-1.2zm-14.3 3.3c-.3.3-1.2.4-1.9.1-.8-.3-.5-.6.6-.6 1.1-.1 1.7.2 1.3.5zm-.8 4.8c-.2.2-1.3-.8-2.3-2.2l-1.9-2.7 2.4 2.2c1.2 1.2 2.1 2.4 1.8 2.7zm20.7-.2c.4.7.3 1-.1.5-.5-.4-1.8.1-2.9 1-2.1 1.8-2.1 1.8-.2-.5 2.2-2.6 2.3-2.6 3.2-1zm-20.2 3.4c.3.8.2 1.2-.4.9-.6-.3-1-1-1-1.6 0-1.4.7-1.1 1.4.7zm8.3.6c-.3.8-.6.5-.6-.6-.1-1.1.2-1.7.5-1.3.3.3.4 1.2.1 1.9zm-20 2.4c-.3.3-1.2.4-1.9.1-.8-.3-.5-.6.6-.6 1.1-.1 1.7.2 1.3.5zm-4.6 3.6c-.3 2.1-.6 2.6-.9 1.5-.3-1.7.3-4.7 1.1-4.7.2 0 .1 1.5-.2 3.2zm15-.5c1.3 1.6 1.2 1.7-.3.4-1.7-1.3-2.2-2.1-1.4-2.1.2 0 1 .8 1.7 1.7zm16.9 2.9c0 .2-.7.4-1.5.4s-1.5-.4-1.5-1c0-.5.7-.7 1.5-.4.8.4 1.5.8 1.5 1zm-1.3 3c-.3.3-1.2.4-1.9.1-.8-.3-.5-.6.6-.6 1.1-.1 1.7.2 1.3.5zM258 129c.6 1.1.8 2 .6 2-.3 0-1-.9-1.6-2-.6-1.1-.8-2-.6-2 .3 0 1 .9 1.6 2zm7.7 4.2c-.3.7-.5.2-.5-1.2s.2-1.9.5-1.3c.2.7.2 1.9 0 2.5zm-59.9-.3c.9.5.4.8-1.6.7-1.7-.1-2.8-.4-2.5-.9.6-.9 2.5-.9 4.1.2zm54.6.7c.3.8.2 1.2-.4.9-.6-.3-1-1-1-1.6 0-1.4.7-1.1 1.4.7zm-15.7 0c-.3.3-1.2.4-1.9.1-.8-.3-.5-.6.6-.6 1.1-.1 1.7.2 1.3.5zm-65 12.6c-.3.8-.6.5-.6-.6-.1-1.1.2-1.7.5-1.3.3.3.4 1.2.1 1.9zm-7.7-.8c0 .2-.8 1-1.7 1.7-1.6 1.3-1.7 1.2-.4-.4 1.3-1.6 2.1-2.1 2.1-1.3zm21.5 4.6c.3.6-.1.7-.9.4-1.8-.7-2.1-1.4-.7-1.4.6 0 1.3.4 1.6 1zm19.2-.4c-.3.3-1.2.4-1.9.1-.8-.3-.5-.6.6-.6 1.1-.1 1.7.2 1.3.5zm39.3 1.8c0 .2-.8 1-1.7 1.7-1.6 1.3-1.7 1.2-.4-.4 1.3-1.6 2.1-2.1 2.1-1.3zm-16.3 6.1c-.7 1.3-1.4 2-1.5 1.4-.2-.5.2-1.6.8-2.4 1.8-2.1 2-1.8.7 1zm-67.3 1.1c.3.8.2 1.2-.4.9-.6-.3-1-1-1-1.6 0-1.4.7-1.1 1.4.7zm83.3 2.6c-.3.8-.6.5-.6-.6-.1-1.1.2-1.7.5-1.3.3.3.4 1.2.1 1.9zm-86.7-.8c0 .3-.4.8-1 1.1-.5.3-1 .1-1-.4 0-.6.5-1.1 1-1.1.6 0 1 .2 1 .4zm33.6 2.4c-1.7 1.6-1.8 1.6-.5-.5.7-1.2 1.5-2 1.8-1.7.3.2-.3 1.2-1.3 2.2zm-12.5-.1c1.3 1.6 1.2 1.7-.3.4-1-.7-1.8-1.5-1.8-1.7 0-.8.8-.3 2.1 1.3zm-31.1-.4c0 .2-1 1.2-2.2 2.3l-2.3 1.9 1.9-2.3c1.8-2.1 2.6-2.7 2.6-1.9zm72.2 2.9c-.8.8-.9.4-.5-1.3.4-1.3.8-1.8 1.1-1 .2.7-.1 1.8-.6 2.3zm13.1 3.5c-.7.2-2.1.2-3 0-1-.3-.4-.5 1.2-.5 1.7 0 2.4.2 1.8.5zm-56.8 2.3c1 1.1 1.6 2 1.3 2-.3 0-1.3-.9-2.3-2-1-1.1-1.6-2-1.3-2 .3 0 1.3.9 2.3 2zm11.5.4c0 .2-.8 1-1.7 1.7-1.6 1.3-1.7 1.2-.4-.4 1.3-1.6 2.1-2.1 2.1-1.3zm12.1 1.3c1.3 1.6 1.2 1.7-.3.4-1-.7-1.8-1.5-1.8-1.7 0-.8.8-.3 2.1 1.3zm23.2-1c-.7.2-1.9.2-2.5 0-.7-.3-.2-.5 1.2-.5s1.9.2 1.3.5zm-59.8 8.3c1 1.1 1.6 2 1.3 2-.3 0-1.3-.9-2.3-2-1-1.1-1.6-2-1.3-2 .3 0 1.3.9 2.3 2zm66.2 1.2c-.3.8-.6.5-.6-.6-.1-1.1.2-1.7.5-1.3.3.3.4 1.2.1 1.9zm-58.9 1.5c-1 .2-2.6.2-3.5 0-1-.3-.2-.5 1.7-.5s2.7.2 1.8.5zm18.2 2.8c1.9 1.9 3.2 3.5 2.9 3.5-.3 0-2-1.6-3.9-3.5s-3.2-3.5-2.9-3.5c.3 0 2 1.6 3.9 3.5zm-31.3.1c-.3.3-1.2.4-1.9.1-.8-.3-.5-.6.6-.6 1.1-.1 1.7.2 1.3.5zm73.3-.2c0 .2-.8 1-1.7 1.7-1.6 1.3-1.7 1.2-.4-.4 1.3-1.6 2.1-2.1 2.1-1.3zm-83.7 3.1c-.3.9-.8 1.4-1 1.1-.3-.3-.2-.9.2-1.5.9-1.6 1.5-1.3.8.4zm68.3 2.7l2.9 3.3-3.2-2.9c-3.1-2.8-3.8-3.6-3-3.6.2 0 1.6 1.5 3.3 3.2zm19.9-2.1c1.1 1.6.1 1.9-1.3.3-.7-.8-.8-1.4-.3-1.4s1.3.5 1.6 1.1zm-54 .9c.3.6-.1.7-.9.4-1.8-.7-2.1-1.4-.7-1.4.6 0 1.3.4 1.6 1zm44.5-.6c0 .2-.8 1-1.7 1.7-1.6 1.3-1.7 1.2-.4-.4 1.3-1.6 2.1-2.1 2.1-1.3zm-56 1c0 .2-.8 1-1.7 1.7-1.6 1.3-1.7 1.2-.4-.4 1.3-1.6 2.1-2.1 2.1-1.3zm-21.9 4.3c1.3 1.6 1.2 1.7-.3.4-1-.7-1.8-1.5-1.8-1.7 0-.8.8-.3 2.1 1.3zm79.9-1.3c0 .2-.8 1-1.7 1.7-1.6 1.3-1.7 1.2-.4-.4 1.3-1.6 2.1-2.1 2.1-1.3zm-4.3 6.3c-.3 1-.5.4-.5-1.2 0-1.7.2-2.4.5-1.8.2.7.2 2.1 0 3zm-66.4 2.6c.4-.3.7-.1.7.5 0 2-1.5 1.4-4.1-1.6l-2.4-2.7 2.6 2.3c1.4 1.2 2.9 1.9 3.2 1.5zm76.7 2.2c-.7.8-1.7 1.5-2.3 1.5-.6 0-.2-.7.9-1.5 2.5-1.9 3-1.9 1.4 0zm-64.5 2.5c1 1.1 1.6 2 1.3 2-.3 0-1.3-.9-2.3-2-1-1.1-1.6-2-1.3-2 .3 0 1.3.9 2.3 2zm60.5-.4c0 .2-1.3.4-3 .4-1.6 0-3-.4-3-.8 0-.5 1.4-.7 3-.4 1.7.2 3 .6 3 .8zm-70.7 4.1c-.7.2-1.9.2-2.5 0-.7-.3-.2-.5 1.2-.5s1.9.2 1.3.5zm67.6 2.7c-.3.3-1.1-.5-1.8-1.7-1.3-2.1-1.2-2.1.5-.5 1 1 1.6 2 1.3 2.2zm-73.9-1c0 .2-.8 1-1.7 1.7-1.6 1.3-1.7 1.2-.4-.4 1.3-1.6 2.1-2.1 2.1-1.3zm30.3 1.3c-.7.2-2.1.2-3 0-1-.3-.4-.5 1.2-.5 1.7 0 2.4.2 1.8.5zm-13.2 3c1.3 1.6 1.2 1.7-.3.4-1-.7-1.8-1.5-1.8-1.7 0-.8.8-.3 2.1 1.3zm42.3 10.9c.3.8.2 1.2-.4.9-.6-.3-1-1-1-1.6 0-1.4.7-1.1 1.4.7zm4.9.1c-.7.2-1.9.2-2.5 0-.7-.3-.2-.5 1.2-.5s1.9.2 1.3.5zm-29.2 5c1.3 1.6 1.2 1.7-.3.4-1-.7-1.8-1.5-1.8-1.7 0-.8.8-.3 2.1 1.3zm14.4.5c-1.1.6-2.7 1.6-3.5 2.2-.9.6-.5.1.8-1.2 1.3-1.2 2.8-2.2 3.5-2.2.7 0 .3.6-.8 1.2zm-36.8 3.4c-.3.3-1.2.4-1.9.1-.8-.3-.5-.6.6-.6 1.1-.1 1.7.2 1.3.5zm48.3 5.7c0 .2-1 1.2-2.2 2.3l-2.3 1.9 1.9-2.3c1.8-2.1 2.6-2.7 2.6-1.9zm-45.9 3.4c1.3 1.6 1.2 1.7-.3.4-1-.7-1.8-1.5-1.8-1.7 0-.8.8-.3 2.1 1.3zm31.9-.2c0 .2-.9.3-1.9.2-1.1 0-1.8-.5-1.5-.9.4-.6 3.4 0 3.4.7zm6.8 1.2c-1 .2-2.6.2-3.5 0-1-.3-.2-.5 1.7-.5s2.7.2 1.8.5zm-32.3 4.3c1 1.1 1.6 2 1.3 2-.3 0-1.3-.9-2.3-2-1-1.1-1.6-2-1.3-2 .3 0 1.3.9 2.3 2zM170 261.5l2.5 3-2.7-2.4c-1.6-1.4-2.8-2.9-2.8-3.4 0-.6.1-.8.3-.6.1.2 1.3 1.7 2.7 3.4zm15.7-.3c-.3.7-.5.2-.5-1.2s.2-1.9.5-1.3c.2.7.2 1.9 0 2.5zm-7.4 4.5c-.7.2-1.9.2-2.5 0-.7-.3-.2-.5 1.2-.5s1.9.2 1.3.5z"/><path d="M100.3 152.1c2 5.9 4.7 16.1 5.2 19.9 1.2 8.5.7 23-1.1 30.5-1 4.5 2.7-4.7 5.6-14 4.1-12.7 4.3-17.2 1.5-23.3-2.1-4.5-12.4-16.5-11.2-13.1z"/></svg>