<svg xmlns="http://www.w3.org/2000/svg" width="540" height="540">
    <path fill="#fefe33" d="M511.481 205.295c11.906 44.433 11.906 84.977 0 129.41l-24.166 14.637L270 270l220.204-77.9z"/>
    <path fill="#fb9902" d="M334.705 28.519c44.432 11.905 79.545 32.177 112.072 64.704l.623 24.873L270 270l43.065-229.492z"/>
    <path fill="#fabc02" d="M446.777 93.223c32.527 32.527 52.799 67.64 64.704 112.072L270 270z"/>
    <path fill="#fe2712" d="M93.223 93.223c32.527-32.527 67.64-52.799 112.072-64.704l25.91 15.983L270 270 92.74 120.057z"/>
    <path fill="#fd5308" d="M205.295 28.519c44.433-11.906 84.977-11.906 129.41 0L270 270z"/>
    <path fill="#8601af" d="M28.519 334.705c-11.906-44.433-11.906-84.977 0-129.41l27.792-18.668L270 270 55.855 349.405z"/>
    <path fill="#a7194b" d="M28.519 205.295c11.905-44.432 32.177-79.545 64.704-112.072L270 270z"/>
    <path fill="#0247fe" d="M205.295 511.481c-44.432-11.905-79.545-32.177-112.072-64.704l2.085-28.188L270 270l-38.955 229.706z"/>
    <path fill="#3d01a4" d="M93.223 446.777c-32.527-32.527-52.799-67.64-64.704-112.072L270 270z"/>
    <path fill="#66b032" d="M446.777 446.777c-32.527 32.527-67.64 52.799-112.072 64.704l-24.252-15.093L270 270l176.046 151.157z"/>
    <path fill="#0391ce" d="M334.705 511.481c-44.433 11.906-84.977 11.906-129.41 0L270 270z"/>
    <path fill="#d0ea2b" d="M511.481 334.705c-11.905 44.432-32.177 79.545-64.704 112.072L270 270l241.481 64.705z"/>
</svg>
