<svg xmlns="http://www.w3.org/2000/svg" width="3.5rem" version="1.0" viewBox="0 0 1280 662">
	<path d="M633 1c-139.9 9.1-279.2 59.4-418.9 151.5-69.4 45.7-141.5 105-195.7 160.9L.1 332.3l10 10.8c14 15.1 58.3 56.9 83.9 79.4 144.6 126.7 296.5 205.3 444.5 229.9 42.3 7 66 9 110.5 9 38.3.1 51.7-.7 84.5-4.9 100.6-12.9 198.5-48.2 296-106.8 87.6-52.6 176.7-128.7 242.9-207.5l7.8-9.3-1.9-2.2c-1.1-1.2-7.5-8.7-14.4-16.7-111.1-129.9-237.3-223.9-364.4-271.8C841.9 20.6 788.4 8.2 727 2.4 707.5.6 652.3-.2 633 1zm42.1 58c56.2 5.6 109.6 27.5 153.4 62.7 30.6 24.6 56.1 56.4 73.4 91.6 9.1 18.4 13.7 30.4 18.7 48.6 13.6 49.6 12.3 103.3-3.7 152.1-8.1 24.6-17.9 44.8-32.4 66.5-10.9 16.3-19.3 26.4-34.9 42-23.2 23.2-45 38.7-75.1 53.5-28 13.8-55 22.2-87.5 27.1-19.6 3-58 3.3-77.5.5-68-9.4-124.6-37.8-170.5-85.2-42.2-43.7-67.1-96.3-74.6-157.4-2-16.6-1.5-51.7 1.1-68 15.9-102.9 87.9-186.9 189-220.5 21.8-7.2 40.3-11.1 65.5-13.8 8-.9 45.5-.6 55.1.3z" />
	<path d="M633 126.1c-37.5 3.1-74.2 17.5-103.5 40.4-8.7 6.8-23.7 21.7-30.8 30.6-11 13.6-22.8 34.7-28.6 51.2-7.9 22.5-10.6 40.2-9.8 65.7.7 24.2 3.6 38.5 11.9 59.5 27.7 70.3 98.3 117.4 176 117.5 43.4 0 86.3-14.6 120.3-41.2 8-6.2 24.2-22.6 31-31.3 18.2-23.2 30.7-51.2 35.9-80.4l.6-3.4-4.2 4c-14.2 13-31.9 22.4-51 27-5.6 1.4-11.4 1.8-24.8 1.8-15.9 0-18.4-.3-27.5-2.8-38.1-10.4-67.4-39.5-76.7-76.3-3.2-12.5-3.2-37.1 0-48.6 5.1-18.5 14.4-34.8 27.4-47.8 9-9 17.1-14.8 28.5-20.4 14-6.9 26.1-10.1 42.6-11.3l8.9-.6-6.8-4.4c-34.7-21.9-78.5-32.7-119.4-29.2z" />
</svg>
